<?xml version="1.0" encoding="utf-8"?>
<!-- Generator: Adobe Illustrator 22.0.0, SVG Export Plug-In . SVG Version: 6.00 Build 0)  -->
<svg version="1.1" id="Layer_1" xmlns="http://www.w3.org/2000/svg" xmlns:xlink="http://www.w3.org/1999/xlink" x="0px" y="0px"
	 viewBox="0 0 154 154" style="enable-background:new 0 0 154 154;" xml:space="preserve">
<style type="text/css">
	.st0{fill:#FFFFFF;}
	.st1{fill:#284C97;}
	.st2{fill:#B92529;}
</style>
<path class="st0" d="M142.7,154l-132.2,0C8.7,154,0,146.5,0,142.5V11.4C0,5.1,5.1,0,11.4,0h131.2c6.3,0,11.4,5.5,11.4,11.4v131.2
	C154,148.8,149,154,142.7,154z"/>
<g>
	<g>
		<path class="st1" d="M11.4,0C5.1,0,0,5.2,0,11.5v131.2c0,5.9,4.6,10.9,10.4,11.4L65.3,0H11.4L11.4,0z"/>
		<path class="st2" d="M154,11.5C154,5.2,148.9,0,142.6,0h-32.2L154,123.4V11.5L154,11.5z"/>
		<polygon class="st1" points="118.4,128.7 55.7,128.7 47.4,154 126.6,154 		"/>
		<polygon class="st1" points="87.5,32.4 65.4,99.4 109,99.4 		"/>
	</g>
</g>
</svg>
